<svg width="252" height="144" viewBox="0 0 252 144" fill="none" xmlns="http://www.w3.org/2000/svg">
<g clip-path="url(#clip0_268_724)">
<rect x="0.5" width="251" height="144" rx="8" fill="#FDDCAB" style="fill:#FDDCAB;fill:color(display-p3 0.9933 0.8637 0.6695);fill-opacity:1;"/>
<rect x="116.503" y="-12.9969" width="209.994" height="209.994" rx="104.997" stroke="#FEB273" style="stroke:#FEB273;stroke:color(display-p3 0.9972 0.6962 0.4498);stroke-opacity:1;" stroke-width="6.00612"/>
<path fill-rule="evenodd" clip-rule="evenodd" d="M221.5 200C281.147 200 329.5 151.647 329.5 91.9999C329.5 32.3533 281.147 -16 221.5 -16C161.853 -16 113.5 32.3533 113.5 91.9999C113.5 151.647 161.853 200 221.5 200ZM255.192 34.311C256.832 28.4855 251.179 25.0407 246.016 28.719L173.943 80.0637C168.344 84.0527 169.224 91.9999 175.266 91.9999H194.245V91.853H231.234L201.095 102.487L187.808 149.689C186.168 155.515 191.821 158.959 196.984 155.281L269.057 103.937C274.657 99.9476 273.775 91.9999 267.734 91.9999H238.953L255.192 34.311Z" fill="#FEB273" style="fill:#FEB273;fill:color(display-p3 0.9972 0.6962 0.4498);fill-opacity:1;"/>
<path d="M50.6663 38.8333V31.7334C50.6663 25.0167 49.0997 23.3333 42.7997 23.3333H30.1997C23.8997 23.3333 22.333 25.0167 22.333 31.7334V50.5C22.333 54.9333 24.7664 55.9833 27.7164 52.8167L27.733 52.8C29.0997 51.35 31.183 51.4667 32.3663 53.05L34.0497 55.3" stroke="#EC4A0A" style="stroke:#EC4A0A;stroke:color(display-p3 0.9261 0.2901 0.0386);stroke-opacity:1;" stroke-width="2.5" stroke-linecap="round" stroke-linejoin="round"/>
<path d="M29.833 31.6667H43.1663" stroke="#EC4A0A" style="stroke:#EC4A0A;stroke:color(display-p3 0.9261 0.2901 0.0386);stroke-opacity:1;" stroke-width="2.5" stroke-linecap="round" stroke-linejoin="round"/>
<path d="M31.5 38.3333H41.5" stroke="#EC4A0A" style="stroke:#EC4A0A;stroke:color(display-p3 0.9261 0.2901 0.0386);stroke-opacity:1;" stroke-width="2.5" stroke-linecap="round" stroke-linejoin="round"/>
<path d="M46.852 44.6171L40.952 50.5171C40.7187 50.7505 40.502 51.1838 40.452 51.5005L40.1353 53.7505C40.0187 54.5671 40.5854 55.1338 41.402 55.0172L43.652 54.7005C43.9687 54.6505 44.4187 54.4338 44.6354 54.2005L50.5354 48.3005C51.552 47.2838 52.0354 46.1005 50.5354 44.6005C49.052 43.1172 47.8687 43.6005 46.852 44.6171Z" stroke="#EC4A0A" style="stroke:#EC4A0A;stroke:color(display-p3 0.9261 0.2901 0.0386);stroke-opacity:1;" stroke-width="2.5" stroke-miterlimit="10" stroke-linecap="round" stroke-linejoin="round"/>
<path d="M45.999 45.4671C46.499 47.2671 47.899 48.6671 49.699 49.1671" stroke="#EC4A0A" style="stroke:#EC4A0A;stroke:color(display-p3 0.9261 0.2901 0.0386);stroke-opacity:1;" stroke-width="2.5" stroke-miterlimit="10" stroke-linecap="round" stroke-linejoin="round"/>
<path d="M17.7912 93V79.9091H22.7003C23.706 79.9091 24.5497 80.0838 25.2315 80.4332C25.9176 80.7827 26.4354 81.2727 26.7848 81.9034C27.1385 82.5298 27.3153 83.2607 27.3153 84.0959C27.3153 84.9354 27.1364 85.6641 26.7784 86.282C26.4247 86.8956 25.9027 87.3707 25.2124 87.7074C24.522 88.0398 23.674 88.206 22.6683 88.206H19.1719V86.2372H22.3487C22.9368 86.2372 23.4183 86.1562 23.7933 85.9943C24.1683 85.8281 24.4453 85.5874 24.6243 85.272C24.8075 84.9524 24.8991 84.5604 24.8991 84.0959C24.8991 83.6314 24.8075 83.2351 24.6243 82.907C24.4411 82.5746 24.1619 82.3232 23.7869 82.1527C23.4119 81.978 22.9283 81.8906 22.3359 81.8906H20.1626V93H17.7912ZM24.554 87.0682L27.7947 93H25.1484L21.9652 87.0682H24.554ZM33.6019 93.1918C32.6175 93.1918 31.7674 92.9872 31.0515 92.5781C30.3398 92.1648 29.7923 91.581 29.4087 90.8267C29.0252 90.0682 28.8335 89.1754 28.8335 88.1484C28.8335 87.1385 29.0252 86.2521 29.4087 85.4893C29.7965 84.7223 30.3377 84.1257 31.0323 83.6996C31.7269 83.2692 32.543 83.054 33.4805 83.054C34.0856 83.054 34.6566 83.152 35.1935 83.348C35.7347 83.5398 36.212 83.8381 36.6254 84.2429C37.043 84.6477 37.3711 85.1634 37.6097 85.7898C37.8484 86.4119 37.9677 87.1534 37.9677 88.0142V88.7237H29.9201V87.1641H35.7496C35.7454 86.7209 35.6495 86.3267 35.462 85.9815C35.2745 85.6321 35.0124 85.3572 34.6758 85.157C34.3434 84.9567 33.9556 84.8565 33.5124 84.8565C33.0394 84.8565 32.6239 84.9716 32.266 85.2017C31.908 85.4276 31.6289 85.7259 31.4286 86.0966C31.2326 86.4631 31.1325 86.8658 31.1282 87.3047V88.6662C31.1282 89.2372 31.2326 89.7273 31.4414 90.1364C31.6502 90.5412 31.9421 90.8523 32.3171 91.0696C32.6921 91.2827 33.131 91.3892 33.6339 91.3892C33.9705 91.3892 34.2752 91.3423 34.5479 91.2486C34.8207 91.1506 35.0572 91.0078 35.2575 90.8203C35.4577 90.6328 35.609 90.4006 35.7113 90.1236L37.8718 90.3665C37.7354 90.9375 37.4755 91.4361 37.092 91.8622C36.7127 92.2841 36.2269 92.6122 35.6346 92.8466C35.0423 93.0767 34.3647 93.1918 33.6019 93.1918ZM44.2079 93.1918C43.2278 93.1918 42.3862 92.9766 41.6831 92.5462C40.9842 92.1158 40.4451 91.5213 40.0659 90.7628C39.6909 90 39.5034 89.1222 39.5034 88.1293C39.5034 87.1321 39.6951 86.2521 40.0787 85.4893C40.4622 84.7223 41.0034 84.1257 41.7022 83.6996C42.4054 83.2692 43.2363 83.054 44.1951 83.054C44.992 83.054 45.6973 83.201 46.3109 83.495C46.9288 83.7848 47.421 84.196 47.7875 84.7287C48.1539 85.2571 48.3627 85.875 48.4139 86.5824H46.2022C46.1127 86.1094 45.8997 85.7152 45.563 85.3999C45.2306 85.0803 44.7853 84.9205 44.2271 84.9205C43.7541 84.9205 43.3386 85.0483 42.9806 85.304C42.6227 85.5554 42.3436 85.9176 42.1433 86.3906C41.9473 86.8636 41.8493 87.4304 41.8493 88.0909C41.8493 88.7599 41.9473 89.3352 42.1433 89.8168C42.3393 90.294 42.6142 90.6626 42.9679 90.9226C43.3258 91.1783 43.7456 91.3061 44.2271 91.3061C44.568 91.3061 44.8727 91.2422 45.1412 91.1143C45.4139 90.9822 45.6419 90.7926 45.8251 90.5455C46.0083 90.2983 46.1341 89.9979 46.2022 89.6442H48.4139C48.3585 90.3388 48.1539 90.9545 47.8002 91.4915C47.4466 92.0241 46.965 92.4418 46.3556 92.7443C45.7463 93.0426 45.0304 93.1918 44.2079 93.1918ZM54.5966 93.1918C53.6378 93.1918 52.8068 92.9808 52.1037 92.5589C51.4006 92.1371 50.8551 91.5469 50.4673 90.7884C50.0838 90.0298 49.892 89.1435 49.892 88.1293C49.892 87.1151 50.0838 86.2266 50.4673 85.4638C50.8551 84.701 51.4006 84.1087 52.1037 83.6868C52.8068 83.2649 53.6378 83.054 54.5966 83.054C55.5554 83.054 56.3864 83.2649 57.0895 83.6868C57.7926 84.1087 58.3359 84.701 58.7195 85.4638C59.1072 86.2266 59.3011 87.1151 59.3011 88.1293C59.3011 89.1435 59.1072 90.0298 58.7195 90.7884C58.3359 91.5469 57.7926 92.1371 57.0895 92.5589C56.3864 92.9808 55.5554 93.1918 54.5966 93.1918ZM54.6094 91.3381C55.1293 91.3381 55.5639 91.1953 55.9134 90.9098C56.2628 90.62 56.5227 90.2322 56.6932 89.7464C56.8679 89.2607 56.9553 88.7195 56.9553 88.1229C56.9553 87.522 56.8679 86.9787 56.6932 86.4929C56.5227 86.0028 56.2628 85.6129 55.9134 85.3232C55.5639 85.0334 55.1293 84.8885 54.6094 84.8885C54.0767 84.8885 53.6335 85.0334 53.2798 85.3232C52.9304 85.6129 52.6683 86.0028 52.4936 86.4929C52.3232 86.9787 52.2379 87.522 52.2379 88.1229C52.2379 88.7195 52.3232 89.2607 52.4936 89.7464C52.6683 90.2322 52.9304 90.62 53.2798 90.9098C53.6335 91.1953 54.0767 91.3381 54.6094 91.3381ZM61.2651 93V83.1818H63.5087V84.8182H63.611C63.79 84.2514 64.0968 83.8146 64.5314 83.5078C64.9703 83.1967 65.4711 83.0412 66.0336 83.0412C66.1614 83.0412 66.3042 83.0476 66.4618 83.0604C66.6238 83.0689 66.758 83.0838 66.8645 83.1051V85.2337C66.7665 85.1996 66.611 85.1697 66.3979 85.1442C66.1891 85.1143 65.9867 85.0994 65.7907 85.0994C65.3688 85.0994 64.9895 85.1911 64.6529 85.3743C64.3205 85.5533 64.0584 85.8026 63.8667 86.1222C63.6749 86.4418 63.579 86.8104 63.579 87.228V93H61.2651ZM71.641 93.1726C70.8697 93.1726 70.1793 92.9744 69.57 92.5781C68.9606 92.1818 68.479 91.6065 68.1254 90.8523C67.7717 90.098 67.5948 89.1818 67.5948 88.1037C67.5948 87.0128 67.7738 86.0923 68.1317 85.3423C68.494 84.5881 68.9819 84.0192 69.5955 83.6357C70.2092 83.2479 70.8931 83.054 71.6474 83.054C72.2227 83.054 72.6957 83.152 73.0664 83.348C73.4371 83.5398 73.7312 83.772 73.9485 84.0447C74.1658 84.3132 74.3342 84.5668 74.4535 84.8054H74.5494V79.9091H76.8697V93H74.5941V91.4531H74.4535C74.3342 91.6918 74.1616 91.9453 73.9357 92.2138C73.7099 92.478 73.4116 92.7038 73.0408 92.8913C72.6701 93.0788 72.2035 93.1726 71.641 93.1726ZM72.2866 91.2741C72.7766 91.2741 73.1942 91.142 73.5394 90.8778C73.8846 90.6094 74.1467 90.2365 74.3256 89.7592C74.5046 89.282 74.5941 88.7259 74.5941 88.0909C74.5941 87.456 74.5046 86.9041 74.3256 86.4354C74.1509 85.9666 73.891 85.6023 73.5458 85.3423C73.2049 85.0824 72.7852 84.9524 72.2866 84.9524C71.771 84.9524 71.3406 85.0866 70.9954 85.3551C70.6502 85.6236 70.3903 85.9943 70.2156 86.4673C70.0408 86.9403 69.9535 87.4815 69.9535 88.0909C69.9535 88.7045 70.0408 89.2521 70.2156 89.7337C70.3945 90.2109 70.6566 90.5881 71.0018 90.8651C71.3512 91.1378 71.7795 91.2741 72.2866 91.2741ZM86.6255 93.1982C86.0034 93.1982 85.443 93.0874 84.9444 92.8658C84.4501 92.6399 84.0581 92.3075 83.7683 91.8686C83.4828 91.4297 83.34 90.8885 83.34 90.245C83.34 89.6911 83.4423 89.233 83.6468 88.8707C83.8514 88.5085 84.1305 88.2188 84.4842 88.0014C84.8379 87.7841 85.2363 87.62 85.6795 87.5092C86.127 87.3942 86.5893 87.3111 87.0666 87.2599C87.6419 87.2003 88.1085 87.147 88.4664 87.1001C88.8244 87.049 89.0843 86.9723 89.2463 86.87C89.4125 86.7635 89.4956 86.5994 89.4956 86.3778V86.3395C89.4956 85.858 89.3528 85.4851 89.0673 85.2209C88.7818 84.9567 88.3706 84.8246 87.8336 84.8246C87.2669 84.8246 86.8173 84.9482 86.4849 85.1953C86.1568 85.4425 85.9352 85.7344 85.8201 86.071L83.6596 85.7642C83.8301 85.1676 84.1113 84.669 84.5034 84.2685C84.8954 83.8636 85.3748 83.5611 85.9416 83.3608C86.5083 83.1562 87.1348 83.054 87.8208 83.054C88.2939 83.054 88.7647 83.1094 89.2335 83.2202C89.7022 83.331 90.1305 83.5142 90.5183 83.7699C90.9061 84.0213 91.2172 84.3643 91.4515 84.799C91.6902 85.2337 91.8095 85.777 91.8095 86.429V93H89.5851V91.6513H89.5083C89.3677 91.924 89.1696 92.1797 88.9139 92.4183C88.6625 92.6527 88.345 92.8423 87.9615 92.9872C87.5822 93.1278 87.1369 93.1982 86.6255 93.1982ZM87.2264 91.4979C87.6909 91.4979 88.0936 91.4062 88.4345 91.223C88.7754 91.0355 89.0375 90.7884 89.2207 90.4815C89.4082 90.1747 89.502 89.8402 89.502 89.478V88.321C89.4295 88.3807 89.3059 88.4361 89.1312 88.4872C88.9608 88.5384 88.769 88.5831 88.5559 88.6214C88.3429 88.6598 88.1319 88.6939 87.9231 88.7237C87.7143 88.7536 87.5332 88.7791 87.3798 88.8004C87.0346 88.8473 86.7257 88.924 86.4529 89.0305C86.1802 89.1371 85.965 89.2862 85.8074 89.478C85.6497 89.6655 85.5708 89.9084 85.5708 90.2067C85.5708 90.6328 85.7264 90.9545 86.0375 91.1719C86.3485 91.3892 86.7449 91.4979 87.2264 91.4979ZM100.915 87.2472V93H98.601V83.1818H100.813V84.8501H100.928C101.154 84.3004 101.514 83.8636 102.008 83.5398C102.507 83.2159 103.122 83.054 103.855 83.054C104.533 83.054 105.123 83.1989 105.626 83.4886C106.133 83.7784 106.525 84.1982 106.802 84.7479C107.083 85.2976 107.222 85.9645 107.218 86.7486V93H104.904V87.1065C104.904 86.4503 104.733 85.9368 104.392 85.5661C104.056 85.1953 103.589 85.0099 102.992 85.0099C102.588 85.0099 102.227 85.0994 101.912 85.2784C101.601 85.4531 101.356 85.7067 101.177 86.0391C101.002 86.3714 100.915 86.7741 100.915 87.2472ZM113.916 93.1918C112.932 93.1918 112.082 92.9872 111.366 92.5781C110.654 92.1648 110.107 91.581 109.723 90.8267C109.34 90.0682 109.148 89.1754 109.148 88.1484C109.148 87.1385 109.34 86.2521 109.723 85.4893C110.111 84.7223 110.652 84.1257 111.347 83.6996C112.041 83.2692 112.857 83.054 113.795 83.054C114.4 83.054 114.971 83.152 115.508 83.348C116.049 83.5398 116.526 83.8381 116.94 84.2429C117.357 84.6477 117.686 85.1634 117.924 85.7898C118.163 86.4119 118.282 87.1534 118.282 88.0142V88.7237H110.235V87.1641H116.064C116.06 86.7209 115.964 86.3267 115.776 85.9815C115.589 85.6321 115.327 85.3572 114.99 85.157C114.658 84.9567 114.27 84.8565 113.827 84.8565C113.354 84.8565 112.938 84.9716 112.58 85.2017C112.222 85.4276 111.943 85.7259 111.743 86.0966C111.547 86.4631 111.447 86.8658 111.443 87.3047V88.6662C111.443 89.2372 111.547 89.7273 111.756 90.1364C111.965 90.5412 112.257 90.8523 112.632 91.0696C113.007 91.2827 113.445 91.3892 113.948 91.3892C114.285 91.3892 114.59 91.3423 114.862 91.2486C115.135 91.1506 115.372 91.0078 115.572 90.8203C115.772 90.6328 115.923 90.4006 116.026 90.1236L118.186 90.3665C118.05 90.9375 117.79 91.4361 117.406 91.8622C117.027 92.2841 116.541 92.6122 115.949 92.8466C115.357 93.0767 114.679 93.1918 113.916 93.1918ZM122.213 93L119.439 83.1818H121.798L123.524 90.0852H123.613L125.377 83.1818H127.71L129.475 90.0469H129.57L131.271 83.1818H133.636L130.855 93H128.445L126.605 86.3651H126.47L124.629 93H122.213ZM147.476 85.777L145.367 86.0071C145.307 85.794 145.203 85.5938 145.054 85.4062C144.909 85.2188 144.713 85.0675 144.466 84.9524C144.218 84.8374 143.916 84.7798 143.558 84.7798C143.076 84.7798 142.672 84.8842 142.343 85.093C142.02 85.3018 141.86 85.5724 141.864 85.9048C141.86 86.1903 141.964 86.4226 142.177 86.6016C142.395 86.7805 142.752 86.9276 143.251 87.0426L144.926 87.4006C145.855 87.6009 146.545 87.9183 146.997 88.353C147.453 88.7876 147.683 89.3565 147.687 90.0597C147.683 90.6776 147.502 91.223 147.144 91.696C146.79 92.1648 146.298 92.5312 145.667 92.7955C145.037 93.0597 144.312 93.1918 143.494 93.1918C142.292 93.1918 141.325 92.9403 140.592 92.4375C139.859 91.9304 139.422 91.2251 139.282 90.3217L141.538 90.1044C141.64 90.5476 141.858 90.8821 142.19 91.108C142.522 91.3338 142.955 91.4467 143.488 91.4467C144.037 91.4467 144.478 91.3338 144.811 91.108C145.147 90.8821 145.316 90.603 145.316 90.2706C145.316 89.9893 145.207 89.7571 144.99 89.5739C144.777 89.3906 144.444 89.25 143.993 89.152L142.318 88.8004C141.376 88.6044 140.679 88.2741 140.228 87.8097C139.776 87.3409 139.552 86.7486 139.556 86.0327C139.552 85.4276 139.716 84.9034 140.049 84.4602C140.385 84.0128 140.852 83.6676 141.449 83.4247C142.049 83.1776 142.742 83.054 143.526 83.054C144.676 83.054 145.582 83.299 146.243 83.7891C146.907 84.2791 147.319 84.9418 147.476 85.777ZM152.42 93.1982C151.798 93.1982 151.238 93.0874 150.739 92.8658C150.245 92.6399 149.853 92.3075 149.563 91.8686C149.278 91.4297 149.135 90.8885 149.135 90.245C149.135 89.6911 149.237 89.233 149.442 88.8707C149.646 88.5085 149.925 88.2188 150.279 88.0014C150.633 87.7841 151.031 87.62 151.474 87.5092C151.922 87.3942 152.384 87.3111 152.862 87.2599C153.437 87.2003 153.903 87.147 154.261 87.1001C154.619 87.049 154.879 86.9723 155.041 86.87C155.207 86.7635 155.29 86.5994 155.29 86.3778V86.3395C155.29 85.858 155.148 85.4851 154.862 85.2209C154.577 84.9567 154.165 84.8246 153.629 84.8246C153.062 84.8246 152.612 84.9482 152.28 85.1953C151.952 85.4425 151.73 85.7344 151.615 86.071L149.455 85.7642C149.625 85.1676 149.906 84.669 150.298 84.2685C150.69 83.8636 151.17 83.5611 151.737 83.3608C152.303 83.1562 152.93 83.054 153.616 83.054C154.089 83.054 154.56 83.1094 155.028 83.2202C155.497 83.331 155.925 83.5142 156.313 83.7699C156.701 84.0213 157.012 84.3643 157.246 84.799C157.485 85.2337 157.604 85.777 157.604 86.429V93H155.38V91.6513H155.303C155.163 91.924 154.964 92.1797 154.709 92.4183C154.457 92.6527 154.14 92.8423 153.756 92.9872C153.377 93.1278 152.932 93.1982 152.42 93.1982ZM153.021 91.4979C153.486 91.4979 153.888 91.4062 154.229 91.223C154.57 91.0355 154.832 90.7884 155.016 90.4815C155.203 90.1747 155.297 89.8402 155.297 89.478V88.321C155.224 88.3807 155.101 88.4361 154.926 88.4872C154.756 88.5384 154.564 88.5831 154.351 88.6214C154.138 88.6598 153.927 88.6939 153.718 88.7237C153.509 88.7536 153.328 88.7791 153.175 88.8004C152.83 88.8473 152.521 88.924 152.248 89.0305C151.975 89.1371 151.76 89.2862 151.602 89.478C151.445 89.6655 151.366 89.9084 151.366 90.2067C151.366 90.6328 151.521 90.9545 151.832 91.1719C152.143 91.3892 152.54 91.4979 153.021 91.4979ZM162.245 79.9091V93H159.931V79.9091H162.245ZM168.971 93.1918C167.987 93.1918 167.137 92.9872 166.421 92.5781C165.709 92.1648 165.161 91.581 164.778 90.8267C164.394 90.0682 164.203 89.1754 164.203 88.1484C164.203 87.1385 164.394 86.2521 164.778 85.4893C165.166 84.7223 165.707 84.1257 166.401 83.6996C167.096 83.2692 167.912 83.054 168.85 83.054C169.455 83.054 170.026 83.152 170.563 83.348C171.104 83.5398 171.581 83.8381 171.994 84.2429C172.412 84.6477 172.74 85.1634 172.979 85.7898C173.218 86.4119 173.337 87.1534 173.337 88.0142V88.7237H165.289V87.1641H171.119C171.115 86.7209 171.019 86.3267 170.831 85.9815C170.644 85.6321 170.382 85.3572 170.045 85.157C169.713 84.9567 169.325 84.8565 168.882 84.8565C168.409 84.8565 167.993 84.9716 167.635 85.2017C167.277 85.4276 166.998 85.7259 166.798 86.0966C166.602 86.4631 166.502 86.8658 166.497 87.3047V88.6662C166.497 89.2372 166.602 89.7273 166.811 90.1364C167.019 90.5412 167.311 90.8523 167.686 91.0696C168.061 91.2827 168.5 91.3892 169.003 91.3892C169.34 91.3892 169.644 91.3423 169.917 91.2486C170.19 91.1506 170.426 91.0078 170.627 90.8203C170.827 90.6328 170.978 90.4006 171.08 90.1236L173.241 90.3665C173.105 90.9375 172.845 91.4361 172.461 91.8622C172.082 92.2841 171.596 92.6122 171.004 92.8466C170.411 93.0767 169.734 93.1918 168.971 93.1918Z" fill="black" style="fill:black;fill:black;fill-opacity:1;"/>
<path d="M23.3011 111.364C23.2415 110.86 22.9995 110.469 22.5753 110.19C22.151 109.912 21.6307 109.773 21.0142 109.773C20.5634 109.773 20.169 109.846 19.831 109.991C19.4962 110.137 19.2344 110.338 19.0455 110.593C18.8598 110.848 18.767 111.138 18.767 111.463C18.767 111.735 18.8317 111.969 18.9609 112.164C19.0935 112.356 19.2625 112.517 19.468 112.646C19.6735 112.772 19.889 112.877 20.1143 112.96C20.3397 113.039 20.5469 113.104 20.7358 113.153L21.7699 113.432C22.035 113.501 22.33 113.598 22.6548 113.72C22.983 113.843 23.2962 114.01 23.5945 114.222C23.8961 114.431 24.1446 114.7 24.3402 115.028C24.5357 115.356 24.6335 115.759 24.6335 116.236C24.6335 116.786 24.4893 117.283 24.201 117.727C23.916 118.171 23.4983 118.524 22.9482 118.786C22.4013 119.048 21.7367 119.179 20.9545 119.179C20.2254 119.179 19.594 119.061 19.0604 118.826C18.5301 118.591 18.1125 118.263 17.8075 117.842C17.5059 117.421 17.3352 116.932 17.2955 116.375H18.5682C18.6013 116.759 18.7306 117.078 18.956 117.33C19.1847 117.578 19.473 117.764 19.821 117.886C20.1723 118.006 20.5502 118.065 20.9545 118.065C21.4252 118.065 21.8478 117.989 22.2223 117.837C22.5968 117.681 22.8935 117.465 23.1122 117.19C23.331 116.912 23.4403 116.587 23.4403 116.216C23.4403 115.878 23.3459 115.603 23.157 115.391C22.968 115.179 22.7195 115.006 22.4112 114.874C22.103 114.741 21.7699 114.625 21.4119 114.526L20.1591 114.168C19.3636 113.939 18.7339 113.612 18.2699 113.188C17.8059 112.764 17.5739 112.209 17.5739 111.523C17.5739 110.953 17.728 110.455 18.0362 110.031C18.3478 109.604 18.7654 109.272 19.2891 109.037C19.8161 108.798 20.4044 108.679 21.054 108.679C21.7102 108.679 22.2936 108.797 22.804 109.032C23.3144 109.264 23.7188 109.582 24.017 109.987C24.3187 110.391 24.4777 110.85 24.4943 111.364H23.3011ZM29.8226 111.364V112.358H25.8652V111.364H29.8226ZM27.0186 109.534H28.1919V116.812C28.1919 117.144 28.24 117.393 28.3361 117.558C28.4355 117.721 28.5615 117.83 28.714 117.886C28.8697 117.939 29.0338 117.966 29.2061 117.966C29.3354 117.966 29.4415 117.959 29.5243 117.946C29.6072 117.929 29.6735 117.916 29.7232 117.906L29.9618 118.96C29.8823 118.99 29.7712 119.02 29.6287 119.05C29.4862 119.083 29.3056 119.099 29.0868 119.099C28.7554 119.099 28.4306 119.028 28.1124 118.886C27.7975 118.743 27.5357 118.526 27.3269 118.234C27.1214 117.943 27.0186 117.575 27.0186 117.131V109.534ZM33.8347 119.179C33.3508 119.179 32.9116 119.088 32.5172 118.906C32.1228 118.72 31.8096 118.453 31.5776 118.105C31.3456 117.754 31.2296 117.33 31.2296 116.832C31.2296 116.395 31.3158 116.04 31.4881 115.768C31.6605 115.493 31.8908 115.278 32.1792 115.122C32.4675 114.966 32.7857 114.85 33.1337 114.774C33.485 114.695 33.838 114.632 34.1926 114.585C34.6567 114.526 35.0328 114.481 35.3212 114.451C35.6129 114.418 35.825 114.363 35.9576 114.287C36.0935 114.211 36.1614 114.078 36.1614 113.889V113.849C36.1614 113.359 36.0272 112.978 35.7587 112.706C35.4935 112.434 35.0909 112.298 34.5506 112.298C33.9905 112.298 33.5513 112.421 33.2331 112.666C32.915 112.911 32.6912 113.173 32.562 113.452L31.4483 113.054C31.6472 112.59 31.9123 112.229 32.2438 111.97C32.5785 111.708 32.9431 111.526 33.3375 111.423C33.7353 111.317 34.1264 111.264 34.5108 111.264C34.7561 111.264 35.0378 111.294 35.356 111.354C35.6775 111.41 35.9874 111.528 36.2857 111.707C36.5873 111.886 36.8375 112.156 37.0364 112.517C37.2353 112.878 37.3347 113.362 37.3347 113.969V119H36.1614V117.966H36.1017C36.0222 118.132 35.8896 118.309 35.704 118.498C35.5184 118.687 35.2715 118.848 34.9632 118.98C34.655 119.113 34.2788 119.179 33.8347 119.179ZM34.0137 118.125C34.4777 118.125 34.8688 118.034 35.187 117.852C35.5085 117.669 35.7504 117.434 35.9128 117.146C36.0785 116.857 36.1614 116.554 36.1614 116.236V115.162C36.1117 115.222 36.0023 115.276 35.8333 115.326C35.6676 115.372 35.4753 115.414 35.2566 115.45C35.0411 115.483 34.8307 115.513 34.6252 115.54C34.423 115.563 34.2589 115.583 34.133 115.599C33.8281 115.639 33.543 115.704 33.2779 115.793C33.016 115.879 32.8039 116.01 32.6415 116.186C32.4824 116.358 32.4029 116.594 32.4029 116.892C32.4029 117.3 32.5537 117.608 32.8553 117.817C33.1602 118.022 33.5463 118.125 34.0137 118.125ZM39.4762 119V111.364H40.6097V112.517H40.6893C40.8285 112.139 41.0804 111.833 41.445 111.597C41.8095 111.362 42.2205 111.244 42.6779 111.244C42.7641 111.244 42.8718 111.246 43.0011 111.249C43.1303 111.253 43.2281 111.258 43.2944 111.264V112.457C43.2546 112.447 43.1635 112.433 43.021 112.413C42.8817 112.389 42.7343 112.378 42.5785 112.378C42.2073 112.378 41.8758 112.456 41.5842 112.612C41.2958 112.764 41.0671 112.976 40.8981 113.248C40.7324 113.516 40.6495 113.823 40.6495 114.168V119H39.4762ZM48.4847 111.364V112.358H44.5273V111.364H48.4847ZM45.6808 109.534H46.854V116.812C46.854 117.144 46.9021 117.393 46.9982 117.558C47.0977 117.721 47.2236 117.83 47.3761 117.886C47.5318 117.939 47.6959 117.966 47.8683 117.966C47.9975 117.966 48.1036 117.959 48.1864 117.946C48.2693 117.929 48.3356 117.916 48.3853 117.906L48.6239 118.96C48.5444 118.99 48.4334 119.02 48.2908 119.05C48.1483 119.083 47.9677 119.099 47.7489 119.099C47.4175 119.099 47.0927 119.028 46.7745 118.886C46.4596 118.743 46.1978 118.526 45.989 118.234C45.7835 117.943 45.6808 117.575 45.6808 117.131V109.534ZM50.2496 119V111.364H51.4229V119H50.2496ZM50.8462 110.091C50.6175 110.091 50.4203 110.013 50.2546 109.857C50.0922 109.701 50.011 109.514 50.011 109.295C50.011 109.077 50.0922 108.889 50.2546 108.734C50.4203 108.578 50.6175 108.5 50.8462 108.5C51.0749 108.5 51.2705 108.578 51.4329 108.734C51.5986 108.889 51.6815 109.077 51.6815 109.295C51.6815 109.514 51.5986 109.701 51.4329 109.857C51.2705 110.013 51.0749 110.091 50.8462 110.091ZM54.7452 114.406V119H53.5719V111.364H54.7054V112.557H54.8049C54.9838 112.169 55.2556 111.857 55.6202 111.622C55.9848 111.384 56.4554 111.264 57.0321 111.264C57.5492 111.264 58.0016 111.37 58.3894 111.582C58.7772 111.791 59.0788 112.109 59.2942 112.537C59.5096 112.961 59.6174 113.498 59.6174 114.148V119H58.4441V114.227C58.4441 113.627 58.2883 113.16 57.9767 112.825C57.6652 112.487 57.2376 112.318 56.6941 112.318C56.3195 112.318 55.9848 112.399 55.6898 112.562C55.3981 112.724 55.1678 112.961 54.9988 113.273C54.8297 113.584 54.7452 113.962 54.7452 114.406ZM64.8438 122.023C64.277 122.023 63.7898 121.95 63.3821 121.804C62.9744 121.661 62.6347 121.473 62.3629 121.237C62.0945 121.005 61.8807 120.757 61.7216 120.491L62.6562 119.835C62.7623 119.974 62.8965 120.134 63.0589 120.312C63.2214 120.495 63.4434 120.652 63.7251 120.785C64.0102 120.921 64.383 120.989 64.8438 120.989C65.4602 120.989 65.969 120.839 66.37 120.541C66.7711 120.243 66.9716 119.776 66.9716 119.139V117.588H66.8722C66.786 117.727 66.6634 117.9 66.5043 118.105C66.3485 118.307 66.1231 118.488 65.8281 118.647C65.5365 118.803 65.142 118.881 64.6449 118.881C64.0284 118.881 63.4749 118.735 62.9844 118.443C62.4972 118.152 62.111 117.727 61.826 117.17C61.5443 116.614 61.4034 115.937 61.4034 115.142C61.4034 114.36 61.541 113.679 61.8161 113.099C62.0911 112.515 62.474 112.065 62.9645 111.746C63.455 111.425 64.0218 111.264 64.6648 111.264C65.1619 111.264 65.5563 111.347 65.848 111.513C66.143 111.675 66.3684 111.861 66.5241 112.07C66.6832 112.275 66.8059 112.444 66.892 112.577H67.0114V111.364H68.1449V119.219C68.1449 119.875 67.9957 120.409 67.6974 120.82C67.4025 121.234 67.0047 121.537 66.5043 121.729C66.0071 121.925 65.4536 122.023 64.8438 122.023ZM64.804 117.827C65.2746 117.827 65.6723 117.719 65.9972 117.504C66.322 117.288 66.5689 116.978 66.7379 116.574C66.907 116.17 66.9915 115.686 66.9915 115.122C66.9915 114.572 66.9086 114.086 66.7429 113.665C66.5772 113.245 66.3319 112.915 66.0071 112.676C65.6823 112.437 65.2813 112.318 64.804 112.318C64.3068 112.318 63.8925 112.444 63.5611 112.696C63.233 112.948 62.986 113.286 62.8203 113.71C62.6579 114.134 62.5767 114.605 62.5767 115.122C62.5767 115.652 62.6596 116.121 62.8253 116.529C62.9943 116.933 63.2429 117.252 63.571 117.484C63.9025 117.712 64.3134 117.827 64.804 117.827ZM74.2301 119V111.364H75.3636V112.517H75.4432C75.5824 112.139 75.8343 111.833 76.1989 111.597C76.5634 111.362 76.9744 111.244 77.4318 111.244C77.518 111.244 77.6257 111.246 77.755 111.249C77.8842 111.253 77.982 111.258 78.0483 111.264V112.457C78.0085 112.447 77.9174 112.433 77.7749 112.413C77.6357 112.389 77.4882 112.378 77.3324 112.378C76.9612 112.378 76.6297 112.456 76.3381 112.612C76.0497 112.764 75.821 112.976 75.652 113.248C75.4863 113.516 75.4034 113.823 75.4034 114.168V119H74.2301ZM82.4084 119.159C81.6726 119.159 81.0379 118.997 80.5043 118.672C79.974 118.344 79.5646 117.886 79.2763 117.3C78.9912 116.71 78.8487 116.024 78.8487 115.241C78.8487 114.459 78.9912 113.77 79.2763 113.173C79.5646 112.573 79.9657 112.106 80.4794 111.771C80.9964 111.433 81.5997 111.264 82.2891 111.264C82.6868 111.264 83.0795 111.33 83.4673 111.463C83.8551 111.596 84.2081 111.811 84.5263 112.109C84.8445 112.404 85.098 112.795 85.2869 113.283C85.4759 113.77 85.5703 114.37 85.5703 115.082V115.58H79.6839V114.565H84.3771C84.3771 114.134 84.291 113.75 84.1186 113.412C83.9496 113.074 83.7076 112.807 83.3928 112.612C83.0812 112.416 82.7133 112.318 82.2891 112.318C81.8217 112.318 81.4174 112.434 81.076 112.666C80.7379 112.895 80.4777 113.193 80.2955 113.561C80.1132 113.929 80.022 114.323 80.022 114.744V115.42C80.022 115.997 80.1214 116.486 80.3203 116.887C80.5225 117.285 80.8026 117.588 81.1605 117.797C81.5185 118.002 81.9344 118.105 82.4084 118.105C82.7166 118.105 82.995 118.062 83.2436 117.976C83.4955 117.886 83.7126 117.754 83.8949 117.578C84.0772 117.399 84.218 117.177 84.3175 116.912L85.451 117.23C85.3317 117.615 85.1312 117.953 84.8494 118.244C84.5677 118.533 84.2197 118.758 83.8054 118.92C83.3911 119.08 82.9254 119.159 82.4084 119.159ZM90.4574 119.159C89.7415 119.159 89.125 118.99 88.608 118.652C88.0909 118.314 87.6932 117.848 87.4148 117.255C87.1364 116.662 86.9972 115.984 86.9972 115.222C86.9972 114.446 87.1397 113.762 87.4247 113.168C87.7131 112.572 88.1141 112.106 88.6278 111.771C89.1449 111.433 89.7481 111.264 90.4375 111.264C90.9744 111.264 91.4583 111.364 91.8892 111.562C92.3201 111.761 92.6731 112.04 92.9482 112.398C93.2232 112.756 93.3939 113.173 93.4602 113.651H92.2869C92.1974 113.303 91.9986 112.994 91.6903 112.726C91.3854 112.454 90.9744 112.318 90.4574 112.318C90 112.318 89.599 112.437 89.2543 112.676C88.9129 112.911 88.6461 113.245 88.4538 113.675C88.2649 114.103 88.1705 114.605 88.1705 115.182C88.1705 115.772 88.2633 116.286 88.4489 116.723C88.6378 117.161 88.9029 117.5 89.2443 117.742C89.589 117.984 89.9934 118.105 90.4574 118.105C90.7623 118.105 91.0391 118.052 91.2876 117.946C91.5362 117.84 91.7467 117.688 91.919 117.489C92.0914 117.29 92.214 117.051 92.2869 116.773H93.4602C93.3939 117.223 93.2299 117.629 92.968 117.991C92.7095 118.349 92.3665 118.634 91.9389 118.846C91.5147 119.055 91.0208 119.159 90.4574 119.159ZM98.2777 119.159C97.5883 119.159 96.9834 118.995 96.4631 118.667C95.946 118.339 95.5417 117.88 95.25 117.29C94.9616 116.7 94.8175 116.01 94.8175 115.222C94.8175 114.426 94.9616 113.732 95.25 113.138C95.5417 112.545 95.946 112.085 96.4631 111.756C96.9834 111.428 97.5883 111.264 98.2777 111.264C98.9671 111.264 99.5703 111.428 100.087 111.756C100.608 112.085 101.012 112.545 101.3 113.138C101.592 113.732 101.738 114.426 101.738 115.222C101.738 116.01 101.592 116.7 101.3 117.29C101.012 117.88 100.608 118.339 100.087 118.667C99.5703 118.995 98.9671 119.159 98.2777 119.159ZM98.2777 118.105C98.8014 118.105 99.2322 117.971 99.5703 117.702C99.9084 117.434 100.159 117.081 100.321 116.643C100.483 116.206 100.565 115.732 100.565 115.222C100.565 114.711 100.483 114.236 100.321 113.795C100.159 113.354 99.9084 112.998 99.5703 112.726C99.2322 112.454 98.8014 112.318 98.2777 112.318C97.754 112.318 97.3232 112.454 96.9851 112.726C96.647 112.998 96.3968 113.354 96.2344 113.795C96.072 114.236 95.9908 114.711 95.9908 115.222C95.9908 115.732 96.072 116.206 96.2344 116.643C96.3968 117.081 96.647 117.434 96.9851 117.702C97.3232 117.971 97.754 118.105 98.2777 118.105ZM103.529 119V111.364H104.662V112.517H104.742C104.881 112.139 105.133 111.833 105.498 111.597C105.862 111.362 106.273 111.244 106.731 111.244C106.817 111.244 106.925 111.246 107.054 111.249C107.183 111.253 107.281 111.258 107.347 111.264V112.457C107.307 112.447 107.216 112.433 107.074 112.413C106.934 112.389 106.787 112.378 106.631 112.378C106.26 112.378 105.929 112.456 105.637 112.612C105.349 112.764 105.12 112.976 104.951 113.248C104.785 113.516 104.702 113.823 104.702 114.168V119H103.529ZM111.389 119.159C110.753 119.159 110.191 118.998 109.704 118.677C109.216 118.352 108.835 117.895 108.56 117.305C108.285 116.711 108.148 116.01 108.148 115.202C108.148 114.4 108.285 113.704 108.56 113.114C108.835 112.524 109.218 112.068 109.709 111.746C110.199 111.425 110.766 111.264 111.409 111.264C111.906 111.264 112.299 111.347 112.587 111.513C112.879 111.675 113.101 111.861 113.253 112.07C113.409 112.275 113.53 112.444 113.616 112.577H113.716V108.818H114.889V119H113.756V117.827H113.616C113.53 117.966 113.407 118.142 113.248 118.354C113.089 118.562 112.862 118.75 112.567 118.915C112.272 119.078 111.88 119.159 111.389 119.159ZM111.548 118.105C112.019 118.105 112.416 117.982 112.741 117.737C113.066 117.489 113.313 117.146 113.482 116.708C113.651 116.267 113.736 115.759 113.736 115.182C113.736 114.612 113.653 114.113 113.487 113.685C113.321 113.254 113.076 112.92 112.751 112.681C112.426 112.439 112.025 112.318 111.548 112.318C111.051 112.318 110.637 112.446 110.305 112.701C109.977 112.953 109.73 113.296 109.564 113.73C109.402 114.161 109.321 114.645 109.321 115.182C109.321 115.725 109.404 116.219 109.569 116.663C109.738 117.104 109.987 117.455 110.315 117.717C110.647 117.976 111.058 118.105 111.548 118.105ZM117.201 119V111.364H118.374V119H117.201ZM117.797 110.091C117.569 110.091 117.372 110.013 117.206 109.857C117.043 109.701 116.962 109.514 116.962 109.295C116.962 109.077 117.043 108.889 117.206 108.734C117.372 108.578 117.569 108.5 117.797 108.5C118.026 108.5 118.222 108.578 118.384 108.734C118.55 108.889 118.633 109.077 118.633 109.295C118.633 109.514 118.55 109.701 118.384 109.857C118.222 110.013 118.026 110.091 117.797 110.091ZM121.696 114.406V119H120.523V111.364H121.657V112.557H121.756C121.935 112.169 122.207 111.857 122.571 111.622C122.936 111.384 123.407 111.264 123.983 111.264C124.5 111.264 124.953 111.37 125.341 111.582C125.728 111.791 126.03 112.109 126.245 112.537C126.461 112.961 126.569 113.498 126.569 114.148V119H125.395V114.227C125.395 113.627 125.239 113.16 124.928 112.825C124.616 112.487 124.189 112.318 123.645 112.318C123.271 112.318 122.936 112.399 122.641 112.562C122.349 112.724 122.119 112.961 121.95 113.273C121.781 113.584 121.696 113.962 121.696 114.406ZM131.795 122.023C131.228 122.023 130.741 121.95 130.333 121.804C129.926 121.661 129.586 121.473 129.314 121.237C129.046 121.005 128.832 120.757 128.673 120.491L129.607 119.835C129.713 119.974 129.848 120.134 130.01 120.312C130.173 120.495 130.395 120.652 130.676 120.785C130.961 120.921 131.334 120.989 131.795 120.989C132.411 120.989 132.92 120.839 133.321 120.541C133.722 120.243 133.923 119.776 133.923 119.139V117.588H133.823C133.737 117.727 133.615 117.9 133.455 118.105C133.3 118.307 133.074 118.488 132.779 118.647C132.488 118.803 132.093 118.881 131.596 118.881C130.98 118.881 130.426 118.735 129.936 118.443C129.448 118.152 129.062 117.727 128.777 117.17C128.495 116.614 128.355 115.937 128.355 115.142C128.355 114.36 128.492 113.679 128.767 113.099C129.042 112.515 129.425 112.065 129.916 111.746C130.406 111.425 130.973 111.264 131.616 111.264C132.113 111.264 132.508 111.347 132.799 111.513C133.094 111.675 133.32 111.861 133.475 112.07C133.634 112.275 133.757 112.444 133.843 112.577H133.963V111.364H135.096V119.219C135.096 119.875 134.947 120.409 134.649 120.82C134.354 121.234 133.956 121.537 133.455 121.729C132.958 121.925 132.405 122.023 131.795 122.023ZM131.755 117.827C132.226 117.827 132.624 117.719 132.948 117.504C133.273 117.288 133.52 116.978 133.689 116.574C133.858 116.17 133.943 115.686 133.943 115.122C133.943 114.572 133.86 114.086 133.694 113.665C133.528 113.245 133.283 112.915 132.958 112.676C132.633 112.437 132.232 112.318 131.755 112.318C131.258 112.318 130.844 112.444 130.512 112.696C130.184 112.948 129.937 113.286 129.771 113.71C129.609 114.134 129.528 114.605 129.528 115.122C129.528 115.652 129.611 116.121 129.776 116.529C129.945 116.933 130.194 117.252 130.522 117.484C130.854 117.712 131.265 117.827 131.755 117.827ZM141.937 121.864C141.738 121.864 141.561 121.847 141.405 121.814C141.249 121.784 141.142 121.754 141.082 121.724L141.38 120.69C141.665 120.763 141.917 120.79 142.136 120.77C142.355 120.75 142.548 120.652 142.718 120.477C142.89 120.304 143.047 120.024 143.19 119.636L143.409 119.04L140.585 111.364H141.857L143.965 117.449H144.045L146.153 111.364H147.426L144.184 120.114C144.038 120.508 143.858 120.835 143.642 121.093C143.427 121.355 143.177 121.549 142.892 121.675C142.61 121.801 142.292 121.864 141.937 121.864ZM151.803 119.159C151.114 119.159 150.509 118.995 149.988 118.667C149.471 118.339 149.067 117.88 148.775 117.29C148.487 116.7 148.343 116.01 148.343 115.222C148.343 114.426 148.487 113.732 148.775 113.138C149.067 112.545 149.471 112.085 149.988 111.756C150.509 111.428 151.114 111.264 151.803 111.264C152.492 111.264 153.096 111.428 153.613 111.756C154.133 112.085 154.537 112.545 154.826 113.138C155.117 113.732 155.263 114.426 155.263 115.222C155.263 116.01 155.117 116.7 154.826 117.29C154.537 117.88 154.133 118.339 153.613 118.667C153.096 118.995 152.492 119.159 151.803 119.159ZM151.803 118.105C152.327 118.105 152.758 117.971 153.096 117.702C153.434 117.434 153.684 117.081 153.846 116.643C154.009 116.206 154.09 115.732 154.09 115.222C154.09 114.711 154.009 114.236 153.846 113.795C153.684 113.354 153.434 112.998 153.096 112.726C152.758 112.454 152.327 112.318 151.803 112.318C151.279 112.318 150.849 112.454 150.51 112.726C150.172 112.998 149.922 113.354 149.76 113.795C149.597 114.236 149.516 114.711 149.516 115.222C149.516 115.732 149.597 116.206 149.76 116.643C149.922 117.081 150.172 117.434 150.51 117.702C150.849 117.971 151.279 118.105 151.803 118.105ZM161.867 115.878V111.364H163.04V119H161.867V117.707H161.787C161.608 118.095 161.33 118.425 160.952 118.697C160.574 118.965 160.097 119.099 159.52 119.099C159.043 119.099 158.619 118.995 158.248 118.786C157.876 118.574 157.585 118.256 157.373 117.832C157.16 117.404 157.054 116.866 157.054 116.216V111.364H158.228V116.136C158.228 116.693 158.383 117.137 158.695 117.469C159.01 117.8 159.411 117.966 159.898 117.966C160.19 117.966 160.486 117.891 160.788 117.742C161.093 117.593 161.348 117.364 161.554 117.056C161.762 116.748 161.867 116.355 161.867 115.878ZM165.189 119V111.364H166.323V112.517H166.402C166.541 112.139 166.793 111.833 167.158 111.597C167.522 111.362 167.933 111.244 168.391 111.244C168.477 111.244 168.585 111.246 168.714 111.249C168.843 111.253 168.941 111.258 169.007 111.264V112.457C168.968 112.447 168.876 112.433 168.734 112.413C168.595 112.389 168.447 112.378 168.291 112.378C167.92 112.378 167.589 112.456 167.297 112.612C167.009 112.764 166.78 112.976 166.611 113.248C166.445 113.516 166.362 113.823 166.362 114.168V119H165.189ZM175.509 114.406V119H174.336V111.364H175.469V112.557H175.569C175.748 112.169 176.019 111.857 176.384 111.622C176.748 111.384 177.219 111.264 177.796 111.264C178.313 111.264 178.765 111.37 179.153 111.582C179.541 111.791 179.842 112.109 180.058 112.537C180.273 112.961 180.381 113.498 180.381 114.148V119H179.208V114.227C179.208 113.627 179.052 113.16 178.74 112.825C178.429 112.487 178.001 112.318 177.458 112.318C177.083 112.318 176.748 112.399 176.453 112.562C176.162 112.724 175.931 112.961 175.762 113.273C175.593 113.584 175.509 113.962 175.509 114.406ZM185.727 119.159C184.991 119.159 184.356 118.997 183.823 118.672C183.292 118.344 182.883 117.886 182.595 117.3C182.31 116.71 182.167 116.024 182.167 115.241C182.167 114.459 182.31 113.77 182.595 113.173C182.883 112.573 183.284 112.106 183.798 111.771C184.315 111.433 184.918 111.264 185.607 111.264C186.005 111.264 186.398 111.33 186.786 111.463C187.173 111.596 187.526 111.811 187.845 112.109C188.163 112.404 188.416 112.795 188.605 113.283C188.794 113.77 188.889 114.37 188.889 115.082V115.58H183.002V114.565H187.695C187.695 114.134 187.609 113.75 187.437 113.412C187.268 113.074 187.026 112.807 186.711 112.612C186.4 112.416 186.032 112.318 185.607 112.318C185.14 112.318 184.736 112.434 184.394 112.666C184.056 112.895 183.796 113.193 183.614 113.561C183.432 113.929 183.34 114.323 183.34 114.744V115.42C183.34 115.997 183.44 116.486 183.639 116.887C183.841 117.285 184.121 117.588 184.479 117.797C184.837 118.002 185.253 118.105 185.727 118.105C186.035 118.105 186.313 118.062 186.562 117.976C186.814 117.886 187.031 117.754 187.213 117.578C187.396 117.399 187.536 117.177 187.636 116.912L188.769 117.23C188.65 117.615 188.45 117.953 188.168 118.244C187.886 118.533 187.538 118.758 187.124 118.92C186.709 119.08 186.244 119.159 185.727 119.159ZM192.404 119L190.077 111.364H191.31L192.96 117.21H193.04L194.671 111.364H195.923L197.534 117.19H197.614L199.264 111.364H200.497L198.171 119H197.017L195.347 113.134H195.227L193.557 119H192.404ZM211.395 113.074L210.341 113.372C210.275 113.196 210.177 113.026 210.048 112.86C209.922 112.691 209.749 112.552 209.531 112.442C209.312 112.333 209.032 112.278 208.691 112.278C208.223 112.278 207.834 112.386 207.522 112.602C207.214 112.814 207.06 113.084 207.06 113.412C207.06 113.704 207.166 113.934 207.378 114.103C207.59 114.272 207.922 114.413 208.372 114.526L209.506 114.804C210.189 114.97 210.697 115.223 211.032 115.565C211.367 115.903 211.534 116.339 211.534 116.872C211.534 117.31 211.408 117.701 211.156 118.045C210.908 118.39 210.56 118.662 210.112 118.861C209.665 119.06 209.145 119.159 208.551 119.159C207.772 119.159 207.128 118.99 206.617 118.652C206.107 118.314 205.784 117.82 205.648 117.17L206.762 116.892C206.868 117.303 207.068 117.611 207.363 117.817C207.661 118.022 208.051 118.125 208.531 118.125C209.078 118.125 209.512 118.009 209.834 117.777C210.159 117.542 210.321 117.26 210.321 116.932C210.321 116.667 210.228 116.445 210.043 116.266C209.857 116.083 209.572 115.947 209.188 115.858L207.915 115.56C207.216 115.394 206.702 115.137 206.374 114.789C206.049 114.438 205.887 113.999 205.887 113.472C205.887 113.041 206.008 112.66 206.249 112.328C206.495 111.997 206.828 111.737 207.249 111.548C207.673 111.359 208.154 111.264 208.691 111.264C209.446 111.264 210.039 111.43 210.47 111.761C210.905 112.093 211.213 112.53 211.395 113.074ZM215.548 119.179C215.064 119.179 214.625 119.088 214.23 118.906C213.836 118.72 213.522 118.453 213.29 118.105C213.058 117.754 212.942 117.33 212.942 116.832C212.942 116.395 213.029 116.04 213.201 115.768C213.373 115.493 213.604 115.278 213.892 115.122C214.18 114.966 214.499 114.85 214.847 114.774C215.198 114.695 215.551 114.632 215.906 114.585C216.37 114.526 216.746 114.481 217.034 114.451C217.326 114.418 217.538 114.363 217.67 114.287C217.806 114.211 217.874 114.078 217.874 113.889V113.849C217.874 113.359 217.74 112.978 217.472 112.706C217.206 112.434 216.804 112.298 216.263 112.298C215.703 112.298 215.264 112.421 214.946 112.666C214.628 112.911 214.404 113.173 214.275 113.452L213.161 113.054C213.36 112.59 213.625 112.229 213.957 111.97C214.291 111.708 214.656 111.526 215.05 111.423C215.448 111.317 215.839 111.264 216.224 111.264C216.469 111.264 216.751 111.294 217.069 111.354C217.39 111.41 217.7 111.528 217.999 111.707C218.3 111.886 218.55 112.156 218.749 112.517C218.948 112.878 219.048 113.362 219.048 113.969V119H217.874V117.966H217.815C217.735 118.132 217.603 118.309 217.417 118.498C217.231 118.687 216.984 118.848 216.676 118.98C216.368 119.113 215.992 119.179 215.548 119.179ZM215.727 118.125C216.191 118.125 216.582 118.034 216.9 117.852C217.221 117.669 217.463 117.434 217.626 117.146C217.791 116.857 217.874 116.554 217.874 116.236V115.162C217.825 115.222 217.715 115.276 217.546 115.326C217.38 115.372 217.188 115.414 216.969 115.45C216.754 115.483 216.544 115.513 216.338 115.54C216.136 115.563 215.972 115.583 215.846 115.599C215.541 115.639 215.256 115.704 214.991 115.793C214.729 115.879 214.517 116.01 214.354 116.186C214.195 116.358 214.116 116.594 214.116 116.892C214.116 117.3 214.267 117.608 214.568 117.817C214.873 118.022 215.259 118.125 215.727 118.125ZM222.362 108.818V119H221.189V108.818H222.362ZM227.713 119.159C226.977 119.159 226.343 118.997 225.809 118.672C225.279 118.344 224.869 117.886 224.581 117.3C224.296 116.71 224.153 116.024 224.153 115.241C224.153 114.459 224.296 113.77 224.581 113.173C224.869 112.573 225.27 112.106 225.784 111.771C226.301 111.433 226.904 111.264 227.594 111.264C227.991 111.264 228.384 111.33 228.772 111.463C229.16 111.596 229.513 111.811 229.831 112.109C230.149 112.404 230.403 112.795 230.592 113.283C230.781 113.77 230.875 114.37 230.875 115.082V115.58H224.989V114.565H229.682C229.682 114.134 229.596 113.75 229.423 113.412C229.254 113.074 229.012 112.807 228.697 112.612C228.386 112.416 228.018 112.318 227.594 112.318C227.126 112.318 226.722 112.434 226.381 112.666C226.043 112.895 225.782 113.193 225.6 113.561C225.418 113.929 225.327 114.323 225.327 114.744V115.42C225.327 115.997 225.426 116.486 225.625 116.887C225.827 117.285 226.107 117.588 226.465 117.797C226.823 118.002 227.239 118.105 227.713 118.105C228.021 118.105 228.3 118.062 228.548 117.976C228.8 117.886 229.017 117.754 229.2 117.578C229.382 117.399 229.523 117.177 229.622 116.912L230.756 117.23C230.636 117.615 230.436 117.953 230.154 118.244C229.872 118.533 229.524 118.758 229.11 118.92C228.696 119.08 228.23 119.159 227.713 119.159Z" fill="#344054" style="fill:#344054;fill:color(display-p3 0.2053 0.2525 0.3280);fill-opacity:1;"/>
</g>
<defs>
<clipPath id="clip0_268_724">
<rect x="0.5" width="251" height="144" rx="8" fill="white" style="fill:white;fill:white;fill-opacity:1;"/>
</clipPath>
</defs>
</svg>
