<svg width="139" height="144" viewBox="0 0 139 144" fill="none" xmlns="http://www.w3.org/2000/svg">
<rect x="3.50306" y="-12.9969" width="209.994" height="209.994" rx="104.997" stroke="#FEB273" style="stroke:#FEB273;stroke:color(display-p3 0.9972 0.6962 0.4498);stroke-opacity:1;" stroke-width="6.00612"/>
<path fill-rule="evenodd" clip-rule="evenodd" d="M108.5 200C168.147 200 216.5 151.647 216.5 91.9999C216.5 32.3533 168.147 -16 108.5 -16C48.8531 -16 0.5 32.3533 0.5 91.9999C0.5 151.647 48.8531 200 108.5 200ZM142.192 34.311C143.832 28.4855 138.179 25.0407 133.016 28.719L60.9428 80.0637C55.3435 84.0527 56.2243 91.9999 62.2658 91.9999H81.2446V91.853H118.234L88.0945 102.487L74.8078 149.689C73.1679 155.515 78.8206 158.959 83.9841 155.281L156.057 103.937C161.657 99.9476 160.775 91.9999 154.734 91.9999H125.953L142.192 34.311Z" fill="#FEB273" style="fill:#FEB273;fill:color(display-p3 0.9972 0.6962 0.4498);fill-opacity:1;"/>
</svg>
