<svg width="36" height="36" viewBox="0 0 36 36" fill="none" xmlns="http://www.w3.org/2000/svg">
<path id="Vector" fill-rule="evenodd" clip-rule="evenodd" d="M17.9817 35.9817C27.9127 35.9817 35.9633 27.931 35.9633 18C35.9633 8.06901 27.9127 0.0183353 17.9817 0.0183353C8.05065 0.0183353 0 8.06901 0 18C0 27.931 8.05065 35.9817 17.9817 35.9817ZM23.5913 8.39496C23.8644 7.42503 22.9231 6.85149 22.0635 7.46392L10.0635 16.0127C9.13128 16.6768 9.27792 18 10.2838 18H13.4437V17.9755H19.6023L14.5842 19.7461L12.372 27.6051C12.099 28.575 13.0401 29.1485 13.8998 28.5361L25.8998 19.9874C26.8321 19.3233 26.6853 18 25.6795 18H20.8876L23.5913 8.39496Z" fill="#EC4A0A" style="fill:#EC4A0A;fill:color(display-p3 0.9261 0.2901 0.0386);fill-opacity:1;"/>
</svg>
